<?xml version="1.0" encoding="UTF-8"?>
<svg width="129px" height="179px" viewBox="0 0 129 179" version="1.1" xmlns="http://www.w3.org/2000/svg" xmlns:xlink="http://www.w3.org/1999/xlink">
    <!-- Generator: Sketch 49.3 (51167) - http://www.bohemiancoding.com/sketch -->
    <title>Blowson</title>
    <desc>Created with Sketch.</desc>
    <defs></defs>
    <g id="Blowson" stroke="none" stroke-width="1" fill="none" fill-rule="evenodd">
        <g id="Baloon-1">
            <path d="M61.2589949,103.801713 C62.629701,116.884989 63.5921414,125.441657 64.1463164,129.471716 C64.4579504,131.737975 64.1463164,132.20058 64.1463164,141.021306 C64.1463164,149.842031 71.126068,156.340372 71.126068,163.337065 C71.126068,170.333757 69.1134236,175.488819 69.312503,178.240899" id="Path-7" stroke="#000000" stroke-width="3" stroke-linecap="round" stroke-linejoin="round"></path>
            <path d="M64.3467171,18.8467171 L64.3467171,18.8467171 C89.4756732,18.8467171 109.846717,39.217761 109.846717,64.3467171 L109.846717,109.846717 L64.3467171,109.846717 C39.217761,109.846717 18.8467171,89.4756732 18.8467171,64.3467171 L18.8467171,64.3467171 C18.8467171,39.217761 39.217761,18.8467171 64.3467171,18.8467171 Z" id="Rectangle-8" fill="#D0021B" transform="translate(64.346717, 64.346717) rotate(45.000000) translate(-64.346717, -64.346717) "></path>
            <path d="M64.5,131.571068 L62.5355339,133.535534 C60.5829124,135.488155 57.4170876,135.488155 55.4644661,133.535534 C53.5118446,131.582912 53.5118446,128.417088 55.4644661,126.464466 C57.4170876,124.511845 60.5829124,124.511845 62.5355339,126.464466 L64.5,128.428932 L66.4644661,126.464466 C68.4170876,124.511845 71.5829124,124.511845 73.5355339,126.464466 C75.4881554,128.417088 75.4881554,131.582912 73.5355339,133.535534 C71.5829124,135.488155 68.4170876,135.488155 66.4644661,133.535534 L64.5,131.571068 Z" id="Combined-Shape" fill="#D0021B"></path>
        </g>
        <path d="M38.4771655,62.847838 L39.7930835,62.847838 C42.263799,62.847838 43.4991382,61.6841126 43.4991382,59.356627 C43.4991382,58.1033655 43.3290552,56.8232677 42.9888843,55.516295 L42.3712085,53.0455919 C41.9773263,51.4521594 41.7803882,49.9303647 41.7803882,48.4801622 C41.7803882,45.9378318 42.7650789,43.9415952 44.7344897,42.4913926 C46.7039006,41.0411901 49.4252276,40.3160997 52.8985522,40.3160997 L52.8985522,44.9620958 C49.9265322,45.1411331 48.4405444,46.286955 48.4405444,48.3995958 C48.4405444,48.9188041 48.5300618,49.7244601 48.7090991,50.816588 L49.1119312,53.0993028 C49.3088722,54.3346605 49.4073413,55.6058067 49.4073413,56.9127794 C49.4073413,60.5830451 47.6438498,63.4386481 44.116814,65.4796739 C47.6438498,67.5565072 49.4073413,70.4210619 49.4073413,74.0734239 C49.4073413,75.3803966 49.3088722,76.6515427 49.1119312,77.8869005 L48.7090991,80.1696153 C48.5300618,81.2617432 48.4405444,82.0673992 48.4405444,82.5866075 C48.4405444,84.6992483 49.9265322,85.8450701 52.8985522,86.0241075 L52.8985522,90.6701036 C49.4252276,90.6701036 46.7039006,89.9450132 44.7344897,88.4948106 C42.7650789,87.0446081 41.7803882,85.0483715 41.7803882,82.5060411 C41.7803882,81.0558385 41.9773263,79.5340438 42.3712085,77.9406114 L42.9888843,75.4699083 C43.3290552,74.1629356 43.4991382,72.873886 43.4991382,71.6027208 C43.4991382,69.2931389 42.263799,68.1383653 39.7930835,68.1383653 L38.4771655,68.1383653 L38.4771655,62.847838 Z M91.4092944,62.847838 L91.4092944,68.1383653 L90.0933765,68.1383653 C87.622661,68.1383653 86.3873218,69.2931389 86.3873218,71.6027208 C86.3873218,72.873886 86.5574047,74.1629356 86.8975757,75.4699083 L87.5152515,77.9406114 C87.9091336,79.5340438 88.1060718,81.0558385 88.1060718,82.5060411 C88.1060718,85.0483715 87.1213811,87.0446081 85.1519702,88.4948106 C83.1825593,89.9450132 80.4612324,90.6701036 76.9879077,90.6701036 L76.9879077,86.0241075 C79.9599278,85.8450701 81.4459155,84.6992483 81.4459155,82.5866075 C81.4459155,82.0673992 81.3563982,81.2617432 81.1773608,80.1696153 L80.7745288,77.8869005 C80.5775877,76.6515427 80.4791187,75.3803966 80.4791187,74.0734239 C80.4791187,70.4210619 82.2426101,67.5565072 85.769646,65.4796739 C82.2426101,63.4386481 80.4791187,60.5830451 80.4791187,56.9127794 C80.4791187,55.6058067 80.5775877,54.3346605 80.7745288,53.0993028 L81.1773608,50.816588 C81.3563982,49.7244601 81.4459155,48.9188041 81.4459155,48.3995958 C81.4459155,46.286955 79.9599278,45.1411331 76.9879077,44.9620958 L76.9879077,40.3160997 C80.4612324,40.3160997 83.1825593,41.0411901 85.1519702,42.4913926 C87.1213811,43.9415952 88.1060718,45.9378318 88.1060718,48.4801622 C88.1060718,49.9303647 87.9091336,51.4521594 87.5152515,53.0455919 L86.8975757,55.516295 C86.5574047,56.8232677 86.3873218,58.1033655 86.3873218,59.356627 C86.3873218,61.6841126 87.622661,62.847838 90.0933765,62.847838 L91.4092944,62.847838 Z" id="{-}" fill="#FFFFFF"></path>
    </g>
</svg>